<svg xmlns="http://www.w3.org/2000/svg" width="180" height="180" viewBox="0 0 180 180"><g transform="translate(-640 -245)"><g transform="translate(640 245)" fill="#fff" stroke="#707070" stroke-width="12"><circle cx="90" cy="90" r="90" stroke="none"/><circle cx="90" cy="90" r="84" fill="none"/></g><g transform="translate(691.901 297.004)"><path d="M27.28,14.213a.749.749,0,0,0-1.217-.111L11.539,33.415a.739.739,0,0,0,.506,1.217L37.5,36.844a.752.752,0,0,0,.711-1.122Z" transform="translate(11.367 14.463)" fill="#38c1b1"/><path d="M28.769,18.776a.749.749,0,0,0-1.217-.111l-3.919,3.967a.74.74,0,0,0-.079.853l4.014,7.823a.736.736,0,0,0,.585.363l7.1.616a.752.752,0,0,0,.711-1.122Z" transform="translate(26.456 20.156)" fill="#38c1b1"/><path d="M28.7,19.928a3.738,3.738,0,1,0-3.746-4.441A3.767,3.767,0,0,0,28.7,19.928Z" transform="translate(28.246 12.731)" fill="#38c1b1"/><path d="M69.133,17.629l-10.4-.9L57.77,6.14a4.269,4.269,0,0,0-4.662-3.872L6.154,6.5a4.287,4.287,0,0,0-3.888,4.646L6.5,58.008a4.269,4.269,0,0,0,4.662,3.872l2.481-.221L13.408,64.3a4.273,4.273,0,0,0,3.9,4.631L64.3,73.022a4.287,4.287,0,0,0,4.646-3.888L73.052,22.26A4.306,4.306,0,0,0,69.133,17.629Zm-58.1,27.088a1.088,1.088,0,0,1-1.169-.964L7.023,12.145a1.064,1.064,0,0,1,.964-1.154L52.112,7.025a1.088,1.088,0,0,1,1.169.964l.759,8.344-31.877-2.8a4.287,4.287,0,0,0-4.646,3.888L15.162,44.338Zm57.242-21.43L65.514,54.895a1.076,1.076,0,0,1-1.154.98l-2.94-.253-41.2-3.587a1.076,1.076,0,0,1-.98-1.154l.6-6.938,2.165-24.67a1.076,1.076,0,0,1,1.154-.98l31.292,2.734,4.694.411,8.155.711A1.032,1.032,0,0,1,68.279,23.287Z" transform="translate(0 0)" fill="#38c1b1"/></g></g></svg>