<svg xmlns="http://www.w3.org/2000/svg" width="180" height="180" viewBox="0 0 180 180"><g transform="translate(-640 -245)"><g transform="translate(640 245)" fill="#fff" stroke="#707070" stroke-width="12"><circle cx="90" cy="90" r="90" stroke="none"/><circle cx="90" cy="90" r="84" fill="none"/></g><g transform="translate(674.75 281.751)"><path d="M29.642,14.213a.936.936,0,0,0-1.4-.111L11.566,33.415a.727.727,0,0,0,.581,1.217l29.238,2.213c.69.047,1.162-.6.817-1.122Z" transform="translate(-2.087 0.936)" fill="#38c1b1"/><path d="M28.769,18.776a.749.749,0,0,0-1.217-.111l-3.919,3.967a.74.74,0,0,0-.079.853l4.014,7.823a.736.736,0,0,0,.585.363l7.1.616a.752.752,0,0,0,.711-1.122Z" transform="translate(4.773 4.326)" fill="#38c1b1"/><path d="M28.7,19.928a3.738,3.738,0,1,0-3.746-4.441A3.767,3.767,0,0,0,28.7,19.928Z" transform="translate(8.297 3.745)" fill="#38c1b1"/><path d="M45.695,12.239l-6.755-.585-.626-6.878a2.773,2.773,0,0,0-3.028-2.515L4.786,5.012A2.784,2.784,0,0,0,2.26,8.03L5.012,38.468A2.773,2.773,0,0,0,8.04,40.983l1.612-.144L9.5,42.554a2.776,2.776,0,0,0,2.536,3.008l30.52,2.659A2.785,2.785,0,0,0,45.571,45.7l2.669-30.448A2.8,2.8,0,0,0,45.695,12.239ZM7.958,29.835a.707.707,0,0,1-.76-.626L5.35,8.677a.691.691,0,0,1,.626-.749L34.638,5.351a.707.707,0,0,1,.76.626l.493,5.42L15.185,9.58a2.784,2.784,0,0,0-3.018,2.525l-1.53,17.482ZM45.14,15.914l-1.8,20.531a.7.7,0,0,1-.749.636l-1.909-.164-26.763-2.33a.7.7,0,0,1-.636-.749l.39-4.507,1.406-16.025a.7.7,0,0,1,.749-.636l20.326,1.776,3.049.267,5.3.462A.67.67,0,0,1,45.14,15.914Z" transform="translate(0)" fill="#38c1b1"/></g><g transform="translate(734.75 281.751)"><path d="M29.642,14.213a.936.936,0,0,0-1.4-.111L11.566,33.415a.727.727,0,0,0,.581,1.217l29.238,2.213c.69.047,1.162-.6.817-1.122Z" transform="translate(-2.087 0.936)" fill="#38c1b1"/><path d="M28.769,18.776a.749.749,0,0,0-1.217-.111l-3.919,3.967a.74.74,0,0,0-.079.853l4.014,7.823a.736.736,0,0,0,.585.363l7.1.616a.752.752,0,0,0,.711-1.122Z" transform="translate(4.773 4.326)" fill="#38c1b1"/><path d="M28.7,19.928a3.738,3.738,0,1,0-3.746-4.441A3.767,3.767,0,0,0,28.7,19.928Z" transform="translate(8.297 3.745)" fill="#38c1b1"/><path d="M45.695,12.239l-6.755-.585-.626-6.878a2.773,2.773,0,0,0-3.028-2.515L4.786,5.012A2.784,2.784,0,0,0,2.26,8.03L5.012,38.468A2.773,2.773,0,0,0,8.04,40.983l1.612-.144L9.5,42.554a2.776,2.776,0,0,0,2.536,3.008l30.52,2.659A2.785,2.785,0,0,0,45.571,45.7l2.669-30.448A2.8,2.8,0,0,0,45.695,12.239ZM7.958,29.835a.707.707,0,0,1-.76-.626L5.35,8.677a.691.691,0,0,1,.626-.749L34.638,5.351a.707.707,0,0,1,.76.626l.493,5.42L15.185,9.58a2.784,2.784,0,0,0-3.018,2.525l-1.53,17.482ZM45.14,15.914l-1.8,20.531a.7.7,0,0,1-.749.636l-1.909-.164-26.763-2.33a.7.7,0,0,1-.636-.749l.39-4.507,1.406-16.025a.7.7,0,0,1,.749-.636l20.326,1.776,3.049.267,5.3.462A.67.67,0,0,1,45.14,15.914Z" transform="translate(0)" fill="#38c1b1"/></g><g transform="translate(734.75 340.751)"><path d="M29.642,14.213a.936.936,0,0,0-1.4-.111L11.566,33.415a.727.727,0,0,0,.581,1.217l29.238,2.213c.69.047,1.162-.6.817-1.122Z" transform="translate(-2.087 0.936)" fill="#38c1b1"/><path d="M28.769,18.776a.749.749,0,0,0-1.217-.111l-3.919,3.967a.74.74,0,0,0-.079.853l4.014,7.823a.736.736,0,0,0,.585.363l7.1.616a.752.752,0,0,0,.711-1.122Z" transform="translate(4.773 4.326)" fill="#38c1b1"/><path d="M28.7,19.928a3.738,3.738,0,1,0-3.746-4.441A3.767,3.767,0,0,0,28.7,19.928Z" transform="translate(8.297 3.745)" fill="#38c1b1"/><path d="M45.695,12.239l-6.755-.585-.626-6.878a2.773,2.773,0,0,0-3.028-2.515L4.786,5.012A2.784,2.784,0,0,0,2.26,8.03L5.012,38.468A2.773,2.773,0,0,0,8.04,40.983l1.612-.144L9.5,42.554a2.776,2.776,0,0,0,2.536,3.008l30.52,2.659A2.785,2.785,0,0,0,45.571,45.7l2.669-30.448A2.8,2.8,0,0,0,45.695,12.239ZM7.958,29.835a.707.707,0,0,1-.76-.626L5.35,8.677a.691.691,0,0,1,.626-.749L34.638,5.351a.707.707,0,0,1,.76.626l.493,5.42L15.185,9.58a2.784,2.784,0,0,0-3.018,2.525l-1.53,17.482ZM45.14,15.914l-1.8,20.531a.7.7,0,0,1-.749.636l-1.909-.164-26.763-2.33a.7.7,0,0,1-.636-.749l.39-4.507,1.406-16.025a.7.7,0,0,1,.749-.636l20.326,1.776,3.049.267,5.3.462A.67.67,0,0,1,45.14,15.914Z" transform="translate(0)" fill="#38c1b1"/></g><g transform="translate(674.75 340.751)"><path d="M29.642,14.213a.936.936,0,0,0-1.4-.111L11.566,33.415a.727.727,0,0,0,.581,1.217l29.238,2.213c.69.047,1.162-.6.817-1.122Z" transform="translate(-2.087 0.936)" fill="#38c1b1"/><path d="M28.769,18.776a.749.749,0,0,0-1.217-.111l-3.919,3.967a.74.74,0,0,0-.079.853l4.014,7.823a.736.736,0,0,0,.585.363l7.1.616a.752.752,0,0,0,.711-1.122Z" transform="translate(4.773 4.326)" fill="#38c1b1"/><path d="M28.7,19.928a3.738,3.738,0,1,0-3.746-4.441A3.767,3.767,0,0,0,28.7,19.928Z" transform="translate(8.297 3.745)" fill="#38c1b1"/><path d="M45.695,12.239l-6.755-.585-.626-6.878a2.773,2.773,0,0,0-3.028-2.515L4.786,5.012A2.784,2.784,0,0,0,2.26,8.03L5.012,38.468A2.773,2.773,0,0,0,8.04,40.983l1.612-.144L9.5,42.554a2.776,2.776,0,0,0,2.536,3.008l30.52,2.659A2.785,2.785,0,0,0,45.571,45.7l2.669-30.448A2.8,2.8,0,0,0,45.695,12.239ZM7.958,29.835a.707.707,0,0,1-.76-.626L5.35,8.677a.691.691,0,0,1,.626-.749L34.638,5.351a.707.707,0,0,1,.76.626l.493,5.42L15.185,9.58a2.784,2.784,0,0,0-3.018,2.525l-1.53,17.482ZM45.14,15.914l-1.8,20.531a.7.7,0,0,1-.749.636l-1.909-.164-26.763-2.33a.7.7,0,0,1-.636-.749l.39-4.507,1.406-16.025a.7.7,0,0,1,.749-.636l20.326,1.776,3.049.267,5.3.462A.67.67,0,0,1,45.14,15.914Z" transform="translate(0)" fill="#38c1b1"/></g></g></svg>